<svg width="27" height="33" viewBox="0 0 27 33" fill="none" xmlns="http://www.w3.org/2000/svg">
<g filter="url(#filter0_d_17_1170)">
<path d="M6.375 24.5C5.72188 24.5 5.16256 24.2648 4.69706 23.7944C4.23156 23.324 3.99921 22.7592 4 22.1V7.7C4 7.04 4.23275 6.4748 4.69825 6.0044C5.16375 5.534 5.72267 5.2992 6.375 5.3H8.75C8.75 3.98 9.21511 2.85 10.1453 1.91C11.0755 0.97 12.1938 0.5 13.5 0.5C14.8063 0.5 15.9245 0.97 16.8547 1.91C17.7849 2.85 18.25 3.98 18.25 5.3H20.625C21.2781 5.3 21.8374 5.5352 22.3029 6.0056C22.7684 6.476 23.0008 7.0408 23 7.7V22.1C23 22.76 22.7673 23.3252 22.3018 23.7956C21.8363 24.266 21.2773 24.5008 20.625 24.5H6.375ZM9.9375 11.3C10.274 11.3 10.5562 11.1848 10.7842 10.9544C11.0122 10.724 11.1258 10.4392 11.125 10.1V7.7H8.75V10.1C8.75 10.44 8.864 10.7252 9.092 10.9556C9.32 11.186 9.60183 11.3008 9.9375 11.3ZM11.125 5.3H15.875C15.875 4.64 15.6422 4.0748 15.1767 3.6044C14.7112 3.134 14.1523 2.8992 13.5 2.9C12.8469 2.9 12.2876 3.1352 11.8221 3.6056C11.3566 4.076 11.1242 4.6408 11.125 5.3ZM17.0625 11.3C17.399 11.3 17.6812 11.1848 17.9092 10.9544C18.1372 10.724 18.2508 10.4392 18.25 10.1V7.7H15.875V10.1C15.875 10.44 15.989 10.7252 16.217 10.9556C16.445 11.186 16.7268 11.3008 17.0625 11.3Z" fill="url(#paint0_linear_17_1170)"/>
</g>
<defs>
<filter id="filter0_d_17_1170" x="0" y="0.5" width="27" height="32" filterUnits="userSpaceOnUse" color-interpolation-filters="sRGB">
<feFlood flood-opacity="0" result="BackgroundImageFix"/>
<feColorMatrix in="SourceAlpha" type="matrix" values="0 0 0 0 0 0 0 0 0 0 0 0 0 0 0 0 0 0 127 0" result="hardAlpha"/>
<feOffset dy="4"/>
<feGaussianBlur stdDeviation="2"/>
<feComposite in2="hardAlpha" operator="out"/>
<feColorMatrix type="matrix" values="0 0 0 0 0 0 0 0 0 0 0 0 0 0 0 0 0 0 0.25 0"/>
<feBlend mode="normal" in2="BackgroundImageFix" result="effect1_dropShadow_17_1170"/>
<feBlend mode="normal" in="SourceGraphic" in2="effect1_dropShadow_17_1170" result="shape"/>
</filter>
<linearGradient id="paint0_linear_17_1170" x1="18.25" y1="0.100001" x2="3.51378" y2="22.0183" gradientUnits="userSpaceOnUse">
<stop stop-color="#C8FF2B"/>
<stop offset="0.5625" stop-color="white"/>
<stop offset="1" stop-color="#174AFF"/>
</linearGradient>
</defs>
</svg>
