<svg width="49" height="48" viewBox="0 0 49 48" fill="none" xmlns="http://www.w3.org/2000/svg">
<g filter="url(#filter0_ii_1_67)">
<rect x="0.56366" width="47.564" height="47.564" rx="12" fill="white"/>
</g>
<g filter="url(#filter1_d_1_67)">
<path d="M30.3236 17.2049C30.4471 17.1565 30.5698 17.1084 30.6982 17.0754C31.1486 16.9598 32.2358 16.8062 32.1189 18.0599C32.0705 18.7091 31.6312 20.9818 31.2892 23.4397L30.226 30.0475C30.1537 30.4964 30.1299 30.968 29.9136 31.368C29.772 31.6299 29.535 31.8902 29.1409 31.9734C28.2624 32.1585 26.9442 31.3241 26.6999 31.1385C26.5045 30.9992 23.0384 28.9121 21.8179 27.8921C21.4759 27.6135 21.085 27.0573 21.8667 26.408L26.9926 21.77C27.5784 21.2137 28.1642 19.9151 25.7232 21.4918L19.1943 25.7C18.99 25.8317 18.7828 25.9632 18.5481 26.0266C18.1875 26.124 17.5445 26.2015 16.6423 25.9443L15.5582 25.6273C14.1705 25.2217 12.9328 24.0998 14.2985 23.6253C19.1245 21.4708 25.0484 19.271 30.3236 17.2049Z" fill="#3F52FF"/>
</g>
<defs>
<filter id="filter0_ii_1_67" x="0.56366" y="-4" width="47.564" height="55.564" filterUnits="userSpaceOnUse" color-interpolation-filters="sRGB">
<feFlood flood-opacity="0" result="BackgroundImageFix"/>
<feBlend mode="normal" in="SourceGraphic" in2="BackgroundImageFix" result="shape"/>
<feColorMatrix in="SourceAlpha" type="matrix" values="0 0 0 0 0 0 0 0 0 0 0 0 0 0 0 0 0 0 127 0" result="hardAlpha"/>
<feOffset dy="4"/>
<feGaussianBlur stdDeviation="2"/>
<feComposite in2="hardAlpha" operator="arithmetic" k2="-1" k3="1"/>
<feColorMatrix type="matrix" values="0 0 0 0 0 0 0 0 0 0 0 0 0 0 0 0 0 0 0.2 0"/>
<feBlend mode="normal" in2="shape" result="effect1_innerShadow_1_67"/>
<feColorMatrix in="SourceAlpha" type="matrix" values="0 0 0 0 0 0 0 0 0 0 0 0 0 0 0 0 0 0 127 0" result="hardAlpha"/>
<feOffset dy="-4"/>
<feGaussianBlur stdDeviation="2"/>
<feComposite in2="hardAlpha" operator="arithmetic" k2="-1" k3="1"/>
<feColorMatrix type="matrix" values="0 0 0 0 1 0 0 0 0 1 0 0 0 0 1 0 0 0 0.15 0"/>
<feBlend mode="normal" in2="effect1_innerShadow_1_67" result="effect2_innerShadow_1_67"/>
</filter>
<filter id="filter1_d_1_67" x="9.70581" y="17" width="26.4218" height="23" filterUnits="userSpaceOnUse" color-interpolation-filters="sRGB">
<feFlood flood-opacity="0" result="BackgroundImageFix"/>
<feColorMatrix in="SourceAlpha" type="matrix" values="0 0 0 0 0 0 0 0 0 0 0 0 0 0 0 0 0 0 127 0" result="hardAlpha"/>
<feOffset dy="4"/>
<feGaussianBlur stdDeviation="2"/>
<feComposite in2="hardAlpha" operator="out"/>
<feColorMatrix type="matrix" values="0 0 0 0 0 0 0 0 0 0 0 0 0 0 0 0 0 0 0.25 0"/>
<feBlend mode="normal" in2="BackgroundImageFix" result="effect1_dropShadow_1_67"/>
<feBlend mode="normal" in="SourceGraphic" in2="effect1_dropShadow_1_67" result="shape"/>
</filter>
</defs>
</svg>
