<svg width="44" height="40" viewBox="0 0 44 40" fill="none" xmlns="http://www.w3.org/2000/svg">
<g filter="url(#filter0_d_1_191)">
<path fill-rule="evenodd" clip-rule="evenodd" d="M37.1389 9.44785C37.034 9.44279 36.929 9.44099 36.8239 9.44245H32.4408C28.8552 9.44245 25.7843 12.2883 25.7843 16C25.7843 19.7117 28.8552 22.5575 32.4426 22.5575H36.8221C36.9319 22.5575 37.0381 22.5575 37.1371 22.5503C37.8773 22.5031 38.575 22.1883 39.1002 21.6647C39.6255 21.1411 39.9424 20.4444 39.992 19.7045C39.9992 19.5983 39.9992 19.4849 39.9992 19.3805V12.6195C39.9992 12.5151 39.9992 12.4017 39.992 12.2955C39.9425 11.5558 39.6258 10.8594 39.1009 10.3358C38.576 9.81227 37.8787 9.49733 37.1389 9.44965V9.44785ZM32.0574 17.7478C32.9809 17.7478 33.7315 16.9666 33.7315 16C33.7315 15.0334 32.9809 14.2522 32.0574 14.2522C31.134 14.2522 30.3852 15.0334 30.3852 16C30.3852 16.9666 31.1322 17.7478 32.0574 17.7478Z" fill="url(#paint0_linear_1_191)"/>
<path fill-rule="evenodd" clip-rule="evenodd" d="M36.8221 25.1802C36.8824 25.1781 36.9424 25.1902 36.9972 25.2155C37.052 25.2408 37.1 25.2786 37.1375 25.3259C37.175 25.3732 37.2008 25.4286 37.213 25.4878C37.2251 25.5469 37.2232 25.608 37.2073 25.6662C36.8581 26.9119 36.3055 27.9739 35.4181 28.8667C34.1203 30.1753 32.4732 30.7567 30.4392 31.0321C28.4628 31.3004 25.9391 31.3004 22.7494 31.3004H19.0828C15.8949 31.3004 13.3694 31.3004 11.393 31.0321C9.35896 30.7567 7.71192 30.1753 6.4141 28.8667C5.11627 27.5599 4.54026 25.9002 4.26665 23.85C4.00024 21.8574 4.00024 19.3121 4.00024 16.099V15.901C4.00024 12.688 4.00024 10.1409 4.26665 8.15006C4.54026 6.09982 5.11627 4.44379 6.41229 3.13156C7.71012 1.82473 9.35716 1.24152 11.3912 0.967913C13.3694 0.699707 15.8949 0.699707 19.0828 0.699707H22.7494C25.9373 0.699707 28.4628 0.699707 30.4392 0.967913C32.4732 1.24332 34.1203 1.82473 35.4181 3.13156C36.3055 4.02618 36.8581 5.0882 37.2073 6.33562C37.2228 6.39374 37.2245 6.45467 37.2122 6.51355C37.1999 6.57242 37.174 6.6276 37.1366 6.67466C37.0991 6.72173 37.0512 6.75937 36.9966 6.78458C36.942 6.80979 36.8822 6.82186 36.8221 6.81984H32.4426C27.5213 6.81984 23.185 10.7385 23.185 16C23.185 21.2615 27.5231 25.1802 32.4444 25.1802H36.8221ZM10.5056 7.69465C10.3342 7.69536 10.1646 7.72982 10.0066 7.79606C9.84852 7.8623 9.70505 7.95902 9.58437 8.0807C9.46368 8.20239 9.36815 8.34665 9.30322 8.50526C9.2383 8.66386 9.20524 8.8337 9.20595 9.00508C9.20595 9.7305 9.78737 10.3173 10.5056 10.3173H17.4465C18.1665 10.3173 18.748 9.7305 18.748 9.00508C18.7489 8.6588 18.6124 8.3263 18.3684 8.08059C18.1244 7.83489 17.7928 7.69608 17.4465 7.69465H10.5056Z" fill="url(#paint1_linear_1_191)"/>
</g>
<defs>
<filter id="filter0_d_1_191" x="0.000244141" y="0.699707" width="43.999" height="38.6006" filterUnits="userSpaceOnUse" color-interpolation-filters="sRGB">
<feFlood flood-opacity="0" result="BackgroundImageFix"/>
<feColorMatrix in="SourceAlpha" type="matrix" values="0 0 0 0 0 0 0 0 0 0 0 0 0 0 0 0 0 0 127 0" result="hardAlpha"/>
<feOffset dy="4"/>
<feGaussianBlur stdDeviation="2"/>
<feComposite in2="hardAlpha" operator="out"/>
<feColorMatrix type="matrix" values="0 0 0 0 0 0 0 0 0 0 0 0 0 0 0 0 0 0 0.25 0"/>
<feBlend mode="normal" in2="BackgroundImageFix" result="effect1_dropShadow_1_191"/>
<feBlend mode="normal" in="SourceGraphic" in2="effect1_dropShadow_1_191" result="shape"/>
</filter>
<linearGradient id="paint0_linear_1_191" x1="36.4455" y1="9.22337" x2="29.5639" y2="23.2361" gradientUnits="userSpaceOnUse">
<stop stop-color="#93FF27"/>
<stop offset="1" stop-color="#3F52FF"/>
</linearGradient>
<linearGradient id="paint1_linear_1_191" x1="28.9157" y1="0.189698" x2="12.8762" y2="32.9046" gradientUnits="userSpaceOnUse">
<stop stop-color="#93FF27"/>
<stop offset="1" stop-color="#3F52FF"/>
</linearGradient>
</defs>
</svg>
