<svg width="18" height="17" viewBox="0 0 18 17" fill="none" xmlns="http://www.w3.org/2000/svg">
<path fill-rule="evenodd" clip-rule="evenodd" d="M17.3232 13.3452C17.355 13.3441 17.3866 13.3505 17.4155 13.3638C17.4445 13.3772 17.4698 13.3971 17.4896 13.4221C17.5094 13.4471 17.523 13.4763 17.5294 13.5075C17.5358 13.5387 17.5348 13.571 17.5265 13.6017C17.3422 14.2591 17.0505 14.8197 16.5821 15.2909C15.8971 15.9816 15.0278 16.2884 13.9543 16.4338C12.9111 16.5754 11.5792 16.5754 9.89569 16.5754H7.96044C6.27791 16.5754 4.94499 16.5754 3.90184 16.4338C2.82829 16.2884 1.959 15.9816 1.27401 15.2909C0.589029 14.6012 0.285014 13.7252 0.140607 12.6431C0 11.5914 0 10.248 0 8.55221V8.44771C0 6.75187 0 5.40756 0.140607 4.35681C0.285014 3.2747 0.589029 2.40066 1.27306 1.70807C1.95805 1.01834 2.82734 0.710525 3.90089 0.566118C4.94499 0.424561 6.27791 0.424561 7.96044 0.424561H9.89569C11.5782 0.424561 12.9111 0.424561 13.9543 0.566118C15.0278 0.711475 15.8971 1.01834 16.5821 1.70807C17.0505 2.18025 17.3422 2.74077 17.5265 3.39916C17.5346 3.42983 17.5355 3.46199 17.529 3.49306C17.5226 3.52414 17.5089 3.55326 17.4891 3.5781C17.4694 3.60294 17.4441 3.62281 17.4152 3.63611C17.3864 3.64942 17.3549 3.65579 17.3232 3.65472H15.0117C12.4143 3.65472 10.1256 5.72297 10.1256 8.49996C10.1256 11.2769 12.4152 13.3452 15.0126 13.3452H17.3232ZM3.43347 4.11644C3.34302 4.11682 3.25352 4.135 3.1701 4.16996C3.08668 4.20492 3.01095 4.25597 2.94726 4.3202C2.88356 4.38442 2.83314 4.46056 2.79887 4.54427C2.76461 4.62799 2.74716 4.71763 2.74754 4.80808C2.74754 5.19095 3.0544 5.50066 3.43347 5.50066H7.09685C7.47687 5.50066 7.78374 5.19095 7.78374 4.80808C7.78424 4.62531 7.71219 4.44982 7.5834 4.32014C7.45461 4.19046 7.27962 4.1172 7.09685 4.11644H3.43347Z" fill="url(#paint0_linear_17_1184)"/>
<defs>
<linearGradient id="paint0_linear_17_1184" x1="13.1502" y1="0.155381" x2="4.68466" y2="17.4221" gradientUnits="userSpaceOnUse">
<stop stop-color="#C8FF2B"/>
<stop offset="0.5625" stop-color="white"/>
<stop offset="1" stop-color="#174AFF"/>
</linearGradient>
</defs>
</svg>
