<svg width="34" height="42" viewBox="0 0 34 42" fill="none" xmlns="http://www.w3.org/2000/svg">
<g filter="url(#filter0_d_1_179)">
<path d="M7.25025 33.1331C6.3565 33.1331 5.59112 32.8097 4.95412 32.1629C4.31712 31.5161 3.99916 30.7395 4.00025 29.8331V10.0331C4.00025 9.12556 4.31875 8.34841 4.95575 7.70161C5.59275 7.05481 6.35758 6.73196 7.25025 6.73306H10.5002C10.5002 4.91806 11.1367 3.36431 12.4096 2.07181C13.6825 0.779306 15.2127 0.133057 17.0002 0.133057C18.7877 0.133057 20.318 0.779306 21.5909 2.07181C22.8638 3.36431 23.5002 4.91806 23.5002 6.73306H26.7502C27.644 6.73306 28.4094 7.05646 29.0464 7.70326C29.6834 8.35006 30.0013 9.12666 30.0002 10.0331V29.8331C30.0002 30.7406 29.6817 31.5177 29.0447 32.1645C28.4077 32.8113 27.6429 33.1342 26.7502 33.1331H7.25025ZM12.1252 14.9831C12.5857 14.9831 12.9719 14.8247 13.2839 14.5079C13.5959 14.1911 13.7513 13.7995 13.7502 13.3331V10.0331H10.5002V13.3331C10.5002 13.8006 10.6562 14.1927 10.9682 14.5095C11.2802 14.8263 11.6659 14.9842 12.1252 14.9831ZM13.7502 6.73306H20.2502C20.2502 5.82556 19.9317 5.04841 19.2947 4.40161C18.6577 3.75481 17.8929 3.43196 17.0002 3.43306C16.1065 3.43306 15.3411 3.75646 14.7041 4.40326C14.0671 5.05006 13.7492 5.82666 13.7502 6.73306ZM21.8752 14.9831C22.3357 14.9831 22.7219 14.8247 23.0339 14.5079C23.3459 14.1911 23.5013 13.7995 23.5002 13.3331V10.0331H20.2502V13.3331C20.2502 13.8006 20.4062 14.1927 20.7182 14.5095C21.0302 14.8263 21.4159 14.9842 21.8752 14.9831Z" fill="url(#paint0_linear_1_179)"/>
</g>
<defs>
<filter id="filter0_d_1_179" x="0.000244141" y="0.133057" width="34" height="41" filterUnits="userSpaceOnUse" color-interpolation-filters="sRGB">
<feFlood flood-opacity="0" result="BackgroundImageFix"/>
<feColorMatrix in="SourceAlpha" type="matrix" values="0 0 0 0 0 0 0 0 0 0 0 0 0 0 0 0 0 0 127 0" result="hardAlpha"/>
<feOffset dy="4"/>
<feGaussianBlur stdDeviation="2"/>
<feComposite in2="hardAlpha" operator="out"/>
<feColorMatrix type="matrix" values="0 0 0 0 0 0 0 0 0 0 0 0 0 0 0 0 0 0 0.25 0"/>
<feBlend mode="normal" in2="BackgroundImageFix" result="effect1_dropShadow_1_179"/>
<feBlend mode="normal" in="SourceGraphic" in2="effect1_dropShadow_1_179" result="shape"/>
</filter>
<linearGradient id="paint0_linear_1_179" x1="23.5002" y1="-0.416942" x2="3.20144" y2="29.6305" gradientUnits="userSpaceOnUse">
<stop stop-color="#93FF27"/>
<stop offset="1" stop-color="#3F52FF"/>
</linearGradient>
</defs>
</svg>
