<svg width="27" height="29" viewBox="0 0 27 29" fill="none" xmlns="http://www.w3.org/2000/svg">
<g filter="url(#filter0_d_17_1157)">
<path fill-rule="evenodd" clip-rule="evenodd" d="M5.23711 1.2306C4 2.46015 4 4.44045 4 8.4V12.6C4 16.5595 4 18.5398 5.23711 19.7694C6.47317 21 8.46394 21 12.4444 21H14.5556C18.5361 21 20.5268 21 21.7629 19.7694C23 18.5398 23 16.5595 23 12.6V8.4C23 4.44045 23 2.46015 21.7629 1.2306C20.5268 -1.2517e-07 18.5361 0 14.5556 0H12.4444C8.46394 0 6.47317 -1.2517e-07 5.23711 1.2306ZM8.48611 6.3C8.48611 6.09114 8.56952 5.89084 8.71799 5.74315C8.86645 5.59547 9.06781 5.5125 9.27778 5.5125H17.7222C17.9322 5.5125 18.1335 5.59547 18.282 5.74315C18.4305 5.89084 18.5139 6.09114 18.5139 6.3C18.5139 6.50886 18.4305 6.70916 18.282 6.85685C18.1335 7.00453 17.9322 7.0875 17.7222 7.0875H9.27778C9.06781 7.0875 8.86645 7.00453 8.71799 6.85685C8.56952 6.70916 8.48611 6.50886 8.48611 6.3ZM8.48611 10.5C8.48611 10.2911 8.56952 10.0908 8.71799 9.94315C8.86645 9.79547 9.06781 9.7125 9.27778 9.7125H17.7222C17.9322 9.7125 18.1335 9.79547 18.282 9.94315C18.4305 10.0908 18.5139 10.2911 18.5139 10.5C18.5139 10.7089 18.4305 10.9092 18.282 11.0568C18.1335 11.2045 17.9322 11.2875 17.7222 11.2875H9.27778C9.06781 11.2875 8.86645 11.2045 8.71799 11.0568C8.56952 10.9092 8.48611 10.7089 8.48611 10.5ZM9.27778 13.9125C9.06781 13.9125 8.86645 13.9955 8.71799 14.1432C8.56952 14.2908 8.48611 14.4911 8.48611 14.7C8.48611 14.9089 8.56952 15.1092 8.71799 15.2568C8.86645 15.4045 9.06781 15.4875 9.27778 15.4875H14.5556C14.7655 15.4875 14.9669 15.4045 15.1153 15.2568C15.2638 15.1092 15.3472 14.9089 15.3472 14.7C15.3472 14.4911 15.2638 14.2908 15.1153 14.1432C14.9669 13.9955 14.7655 13.9125 14.5556 13.9125H9.27778Z" fill="url(#paint0_linear_17_1157)"/>
</g>
<defs>
<filter id="filter0_d_17_1157" x="0" y="0" width="27" height="29" filterUnits="userSpaceOnUse" color-interpolation-filters="sRGB">
<feFlood flood-opacity="0" result="BackgroundImageFix"/>
<feColorMatrix in="SourceAlpha" type="matrix" values="0 0 0 0 0 0 0 0 0 0 0 0 0 0 0 0 0 0 127 0" result="hardAlpha"/>
<feOffset dy="4"/>
<feGaussianBlur stdDeviation="2"/>
<feComposite in2="hardAlpha" operator="out"/>
<feColorMatrix type="matrix" values="0 0 0 0 0 0 0 0 0 0 0 0 0 0 0 0 0 0 0.25 0"/>
<feBlend mode="normal" in2="BackgroundImageFix" result="effect1_dropShadow_17_1157"/>
<feBlend mode="normal" in="SourceGraphic" in2="effect1_dropShadow_17_1157" result="shape"/>
</filter>
<linearGradient id="paint0_linear_17_1157" x1="18.25" y1="-0.349999" x2="6.0796" y2="20.3379" gradientUnits="userSpaceOnUse">
<stop stop-color="#C8FF2B"/>
<stop offset="0.5625" stop-color="white"/>
<stop offset="1" stop-color="#174AFF"/>
</linearGradient>
</defs>
</svg>
