<svg width="37" height="40" viewBox="0 0 37 40" fill="none" xmlns="http://www.w3.org/2000/svg">
<g filter="url(#filter0_d_1_201)">
<path fill-rule="evenodd" clip-rule="evenodd" d="M5.88847 1.8752C4.00024 3.7488 4.00024 6.7664 4.00024 12.8V19.2C4.00024 25.2336 4.00024 28.2512 5.88847 30.1248C7.77508 32 10.8136 32 16.8891 32H20.1114C26.1869 32 29.2254 32 31.112 30.1248C33.0002 28.2512 33.0002 25.2336 33.0002 19.2V12.8C33.0002 6.7664 33.0002 3.7488 31.112 1.8752C29.2254 -2.38419e-07 26.1869 0 20.1114 0H16.8891C10.8136 0 7.77508 -2.38419e-07 5.88847 1.8752ZM10.8475 9.6C10.8475 9.28174 10.9748 8.97651 11.2014 8.75147C11.428 8.52643 11.7353 8.4 12.0558 8.4H24.9447C25.2652 8.4 25.5725 8.52643 25.7991 8.75147C26.0257 8.97651 26.153 9.28174 26.153 9.6C26.153 9.91826 26.0257 10.2235 25.7991 10.4485C25.5725 10.6736 25.2652 10.8 24.9447 10.8H12.0558C11.7353 10.8 11.428 10.6736 11.2014 10.4485C10.9748 10.2235 10.8475 9.91826 10.8475 9.6ZM10.8475 16C10.8475 15.6817 10.9748 15.3765 11.2014 15.1515C11.428 14.9264 11.7353 14.8 12.0558 14.8H24.9447C25.2652 14.8 25.5725 14.9264 25.7991 15.1515C26.0257 15.3765 26.153 15.6817 26.153 16C26.153 16.3183 26.0257 16.6235 25.7991 16.8485C25.5725 17.0736 25.2652 17.2 24.9447 17.2H12.0558C11.7353 17.2 11.428 17.0736 11.2014 16.8485C10.9748 16.6235 10.8475 16.3183 10.8475 16ZM12.0558 21.2C11.7353 21.2 11.428 21.3264 11.2014 21.5515C10.9748 21.7765 10.8475 22.0817 10.8475 22.4C10.8475 22.7183 10.9748 23.0235 11.2014 23.2485C11.428 23.4736 11.7353 23.6 12.0558 23.6H20.1114C20.4318 23.6 20.7392 23.4736 20.9658 23.2485C21.1924 23.0235 21.3197 22.7183 21.3197 22.4C21.3197 22.0817 21.1924 21.7765 20.9658 21.5515C20.7392 21.3264 20.4318 21.2 20.1114 21.2H12.0558Z" fill="url(#paint0_linear_1_201)"/>
</g>
<defs>
<filter id="filter0_d_1_201" x="0.000244141" y="0" width="37" height="40" filterUnits="userSpaceOnUse" color-interpolation-filters="sRGB">
<feFlood flood-opacity="0" result="BackgroundImageFix"/>
<feColorMatrix in="SourceAlpha" type="matrix" values="0 0 0 0 0 0 0 0 0 0 0 0 0 0 0 0 0 0 127 0" result="hardAlpha"/>
<feOffset dy="4"/>
<feGaussianBlur stdDeviation="2"/>
<feComposite in2="hardAlpha" operator="out"/>
<feColorMatrix type="matrix" values="0 0 0 0 0 0 0 0 0 0 0 0 0 0 0 0 0 0 0.25 0"/>
<feBlend mode="normal" in2="BackgroundImageFix" result="effect1_dropShadow_1_201"/>
<feBlend mode="normal" in="SourceGraphic" in2="effect1_dropShadow_1_201" result="shape"/>
</filter>
<linearGradient id="paint0_linear_1_201" x1="25.7502" y1="-0.533332" x2="7.2197" y2="31.0177" gradientUnits="userSpaceOnUse">
<stop stop-color="#93FF27"/>
<stop offset="1" stop-color="#3F52FF"/>
</linearGradient>
</defs>
</svg>
