<svg width="38" height="38" viewBox="0 0 38 38" fill="none" xmlns="http://www.w3.org/2000/svg">
<g filter="url(#filter0_d_1_168)">
<path d="M30.4288 14.2857H28.286V8.57143C28.286 7.81367 27.9849 7.08694 27.4491 6.55112C26.9133 6.01531 26.1866 5.71429 25.4288 5.71429H19.7145V3.57143C19.7145 2.62423 19.3383 1.71582 18.6685 1.04605C17.9987 0.376274 17.0903 0 16.1431 0C15.1959 0 14.2875 0.376274 13.6177 1.04605C12.9479 1.71582 12.5717 2.62423 12.5717 3.57143V5.71429H6.85739C6.09963 5.71429 5.3729 6.01531 4.83708 6.55112C4.30126 7.08694 4.00024 7.81367 4.00024 8.57143V14H6.1431C8.28596 14 10.0002 15.7143 10.0002 17.8571C10.0002 20 8.28596 21.7143 6.1431 21.7143H4.00024V27.1429C4.00024 27.9006 4.30126 28.6273 4.83708 29.1632C5.3729 29.699 6.09963 30 6.85739 30H12.286V27.8571C12.286 25.7143 14.0002 24 16.1431 24C18.286 24 20.0002 25.7143 20.0002 27.8571V30H25.4288C26.1866 30 26.9133 29.699 27.4491 29.1632C27.9849 28.6273 28.286 27.9006 28.286 27.1429V21.4286H30.4288C31.376 21.4286 32.2844 21.0523 32.9542 20.3825C33.624 19.7128 34.0002 18.8043 34.0002 17.8571C34.0002 16.9099 33.624 16.0015 32.9542 15.3318C32.2844 14.662 31.376 14.2857 30.4288 14.2857Z" fill="url(#paint0_linear_1_168)"/>
</g>
<defs>
<filter id="filter0_d_1_168" x="0.000244141" y="0" width="38" height="38" filterUnits="userSpaceOnUse" color-interpolation-filters="sRGB">
<feFlood flood-opacity="0" result="BackgroundImageFix"/>
<feColorMatrix in="SourceAlpha" type="matrix" values="0 0 0 0 0 0 0 0 0 0 0 0 0 0 0 0 0 0 127 0" result="hardAlpha"/>
<feOffset dy="4"/>
<feGaussianBlur stdDeviation="2"/>
<feComposite in2="hardAlpha" operator="out"/>
<feColorMatrix type="matrix" values="0 0 0 0 0 0 0 0 0 0 0 0 0 0 0 0 0 0 0.25 0"/>
<feBlend mode="normal" in2="BackgroundImageFix" result="effect1_dropShadow_1_168"/>
<feBlend mode="normal" in="SourceGraphic" in2="effect1_dropShadow_1_168" result="shape"/>
</filter>
<linearGradient id="paint0_linear_1_168" x1="26.5002" y1="-0.499998" x2="10.0002" y2="30.5" gradientUnits="userSpaceOnUse">
<stop stop-color="#93FF27"/>
<stop offset="1" stop-color="#3F52FF"/>
</linearGradient>
</defs>
</svg>
