<svg width="28" height="33" viewBox="0 0 28 33" fill="none" xmlns="http://www.w3.org/2000/svg">
<g filter="url(#filter0_d_17_1163)">
<path d="M14 25C11.1042 24.2708 8.71333 22.6092 6.8275 20.015C4.94167 17.4208 3.99917 14.5408 4 11.375V3.75L14 0L24 3.75V11.375C24 14.5417 23.0571 17.4221 21.1712 20.0163C19.2854 22.6104 16.895 24.2717 14 25ZM14 22.375C16.0208 21.75 17.7083 20.5154 19.0625 18.6712C20.4167 16.8271 21.2083 14.77 21.4375 12.5H14V2.65625L6.5 5.46875V11.9375C6.5 12.0833 6.52083 12.2708 6.5625 12.5H14V22.375Z" fill="url(#paint0_linear_17_1163)"/>
</g>
<defs>
<filter id="filter0_d_17_1163" x="0" y="0" width="28" height="33" filterUnits="userSpaceOnUse" color-interpolation-filters="sRGB">
<feFlood flood-opacity="0" result="BackgroundImageFix"/>
<feColorMatrix in="SourceAlpha" type="matrix" values="0 0 0 0 0 0 0 0 0 0 0 0 0 0 0 0 0 0 127 0" result="hardAlpha"/>
<feOffset dy="4"/>
<feGaussianBlur stdDeviation="2"/>
<feComposite in2="hardAlpha" operator="out"/>
<feColorMatrix type="matrix" values="0 0 0 0 0 0 0 0 0 0 0 0 0 0 0 0 0 0 0.25 0"/>
<feBlend mode="normal" in2="BackgroundImageFix" result="effect1_dropShadow_17_1163"/>
<feBlend mode="normal" in="SourceGraphic" in2="effect1_dropShadow_17_1163" result="shape"/>
</filter>
<linearGradient id="paint0_linear_17_1163" x1="19" y1="-0.416665" x2="3.71103" y2="22.5631" gradientUnits="userSpaceOnUse">
<stop stop-color="#C8FF2B"/>
<stop offset="0.5625" stop-color="white"/>
<stop offset="1" stop-color="#174AFF"/>
</linearGradient>
</defs>
</svg>
