<svg width="35" height="42" viewBox="0 0 35 42" fill="none" xmlns="http://www.w3.org/2000/svg">
<g filter="url(#filter0_d_1_174)">
<path d="M17.5002 34C13.5909 33.0083 10.3632 30.7485 7.81737 27.2204C5.2715 23.6923 3.99912 19.7755 4.00024 15.47V5.1L17.5002 0L31.0002 5.1V15.47C31.0002 19.7767 29.7273 23.694 27.1814 27.2221C24.6356 30.7502 21.4085 33.0095 17.5002 34ZM17.5002 30.43C20.2284 29.58 22.5065 27.901 24.3346 25.3929C26.1627 22.8848 27.2315 20.0872 27.5409 17H17.5002V3.6125L7.37524 7.4375V16.235C7.37524 16.4333 7.40337 16.6883 7.45962 17H17.5002V30.43Z" fill="url(#paint0_linear_1_174)"/>
</g>
<defs>
<filter id="filter0_d_1_174" x="0.000244141" y="0" width="35" height="42" filterUnits="userSpaceOnUse" color-interpolation-filters="sRGB">
<feFlood flood-opacity="0" result="BackgroundImageFix"/>
<feColorMatrix in="SourceAlpha" type="matrix" values="0 0 0 0 0 0 0 0 0 0 0 0 0 0 0 0 0 0 127 0" result="hardAlpha"/>
<feOffset dy="4"/>
<feGaussianBlur stdDeviation="2"/>
<feComposite in2="hardAlpha" operator="out"/>
<feColorMatrix type="matrix" values="0 0 0 0 0 0 0 0 0 0 0 0 0 0 0 0 0 0 0.25 0"/>
<feBlend mode="normal" in2="BackgroundImageFix" result="effect1_dropShadow_1_174"/>
<feBlend mode="normal" in="SourceGraphic" in2="effect1_dropShadow_1_174" result="shape"/>
</filter>
<linearGradient id="paint0_linear_1_174" x1="24.2502" y1="-0.566665" x2="3.39836" y2="30.5439" gradientUnits="userSpaceOnUse">
<stop stop-color="#93FF27"/>
<stop offset="1" stop-color="#3F52FF"/>
</linearGradient>
</defs>
</svg>
