<svg width="166" height="76" viewBox="0 0 166 76" fill="none" xmlns="http://www.w3.org/2000/svg">
<path d="M0.67204 2.6377C0.174983 1.97496 0.309298 1.03476 0.97204 0.537702C1.63478 0.0406454 2.57498 0.17496 3.07204 0.837702L0.67204 2.6377ZM164.33 59.7315C165.105 60.0242 165.495 60.8898 165.203 61.6648L160.432 74.2936C160.139 75.0686 159.273 75.4595 158.498 75.1667C157.724 74.874 157.333 74.0084 157.625 73.2334L161.866 62.0078L150.641 57.767C149.866 57.4742 149.475 56.6086 149.767 55.8337C150.06 55.0587 150.926 54.6678 151.701 54.9606L164.33 59.7315ZM3.07204 0.837702C15.3391 17.1938 38.1186 39.7952 66.4969 54.3554C94.8495 68.9023 128.65 75.3627 163.182 59.7676L164.417 62.5017C128.804 78.585 94.0151 71.8461 65.1274 57.0245C36.2654 42.2162 13.1537 19.2799 0.67204 2.6377L3.07204 0.837702Z" fill="#93FF27"/>
</svg>
