<svg width="166" height="78" viewBox="0 0 166 78" fill="none" xmlns="http://www.w3.org/2000/svg">
<path d="M164.712 2.11654C165.532 2.23369 166.102 2.99349 165.984 3.81359C165.867 4.63369 165.107 5.20354 164.287 5.08639L164.712 2.11654ZM8.6169 77.4685C7.86189 77.8095 6.97342 77.4738 6.63246 76.7188L1.07603 64.4153C0.735062 63.6603 1.07071 62.7719 1.82571 62.4309C2.58072 62.0899 3.46918 62.4256 3.81015 63.1806L8.74919 74.117L19.6856 69.178C20.4406 68.837 21.3291 69.1727 21.6701 69.9277C22.011 70.6827 21.6754 71.5711 20.9204 71.9121L8.6169 77.4685ZM164.287 5.08639C144.048 2.195 111.959 2.32095 81.5965 12.0918C51.2619 21.8539 22.7932 41.1863 9.40273 76.6316L6.5963 75.5714C20.4059 39.0166 49.7704 19.1824 80.6775 9.23608C111.557 -0.701366 144.118 -0.825412 164.712 2.11654L164.287 5.08639Z" fill="#93FF27"/>
</svg>
