<svg width="166" height="78" viewBox="0 0 166 78" fill="none" xmlns="http://www.w3.org/2000/svg">
<path d="M1.78738 1.95833C0.967279 2.07549 0.39743 2.83529 0.514588 3.65539C0.631745 4.47549 1.39154 5.04534 2.21164 4.92818L1.78738 1.95833ZM157.882 77.3103C158.637 77.6513 159.526 77.3156 159.867 76.5606L165.423 64.2571C165.764 63.5021 165.428 62.6137 164.673 62.2727C163.918 61.9317 163.03 62.2674 162.689 63.0224L157.75 73.9588L146.813 69.0198C146.058 68.6788 145.17 69.0145 144.829 69.7695C144.488 70.5245 144.824 71.4129 145.579 71.7539L157.882 77.3103ZM2.21164 4.92818C22.4513 2.0368 54.5404 2.16275 84.9025 11.9336C115.237 21.6957 143.706 41.0281 157.096 76.4734L159.903 75.4132C146.093 38.8584 116.729 19.0242 85.8215 9.07788C54.9419 -0.859569 22.381 -0.983615 1.78738 1.95833L2.21164 4.92818Z" fill="#93FF27"/>
</svg>
