<svg width="31" height="177" viewBox="0 0 31 177" fill="none" xmlns="http://www.w3.org/2000/svg">
<path d="M5.48536 1.47412C5.02565 0.784953 4.0943 0.59894 3.40513 1.05865C2.71595 1.51837 2.52994 2.44972 2.98965 3.13889L5.48536 1.47412ZM4.98864 175.274C5.26688 176.055 6.125 176.462 6.9053 176.183L19.6211 171.649C20.4014 171.371 20.8084 170.513 20.5302 169.733C20.252 168.952 19.3938 168.545 18.6135 168.824L7.3106 172.854L3.28029 161.551C3.00205 160.771 2.14394 160.364 1.36363 160.642C0.583316 160.92 0.176314 161.778 0.454545 162.558L4.98864 175.274ZM2.98965 3.13889C25.5985 37.0326 42.4094 95.353 5.04623 174.128L7.7568 175.413C45.5903 95.647 28.6552 36.2089 5.48536 1.47412L2.98965 3.13889Z" fill="#93FF27"/>
</svg>
