<svg width="30" height="176" viewBox="0 0 30 176" fill="none" xmlns="http://www.w3.org/2000/svg">
<path d="M24.577 0.772707C25.0367 0.0835369 25.9681 -0.102476 26.6573 0.357237C27.3464 0.816949 27.5324 1.7483 27.0727 2.43747L24.577 0.772707ZM25.0737 174.573C24.7955 175.353 23.9374 175.76 23.1571 175.482L10.4413 170.948C9.66095 170.67 9.25395 169.811 9.53218 169.031C9.81041 168.251 10.6685 167.844 11.4488 168.122L22.7518 172.152L26.7821 160.849C27.0603 160.069 27.9184 159.662 28.6987 159.94C29.4791 160.219 29.8861 161.077 29.6078 161.857L25.0737 174.573ZM27.0727 2.43747C4.46387 36.3312 -12.347 94.6516 25.0161 173.426L22.3056 174.712C-15.5279 94.9456 1.40714 35.5075 24.577 0.772707L27.0727 2.43747Z" fill="#93FF27"/>
</svg>
