<svg width="70" height="18" viewBox="0 0 70 18" fill="none" xmlns="http://www.w3.org/2000/svg">
<path d="M67.6128 17.73L69.9995 15.36L63.4638 8.85998L69.9995 2.37L67.6128 -5.75673e-07L61.0771 6.48999L54.5312 -3.73094e-06L52.1445 2.36999L58.6803 8.85998L52.1445 15.36L54.5312 17.73L61.0771 11.24L67.6128 17.73Z" fill="#3F52FF"/>
<path d="M41.5403 17.73L43.927 15.36L37.3912 8.85998L43.927 2.37L41.5403 -5.75673e-07L34.9944 6.48999L28.4587 -3.73094e-06L26.072 2.36999L32.6077 8.85998L26.072 15.36L28.4587 17.73L34.9944 11.24L41.5403 17.73Z" fill="white"/>
<path d="M15.4678 17.73L17.8545 15.36L11.3187 8.85998L17.8545 2.37L15.4678 -5.75673e-07L8.92196 6.48999L2.38621 -3.73094e-06L-0.000490207 2.36999L6.53525 8.85998L-0.00049031 15.36L2.38621 17.73L8.92196 11.24L15.4678 17.73Z" fill="#3F52FF"/>
</svg>
